<svg width="14" height="13" viewBox="0 0 14 13" fill="none" xmlns="http://www.w3.org/2000/svg">
<path d="M10.4751 3.44161C10.337 3.44161 10.2251 3.33985 10.2251 3.21433C10.2251 3.08882 10.337 2.98706 10.4751 2.98706" stroke="#4B4B4B" stroke-linecap="round" stroke-linejoin="round"/>
<path d="M10.4751 3.44161C10.6132 3.44161 10.7251 3.33985 10.7251 3.21433C10.7251 3.08882 10.6132 2.98706 10.4751 2.98706" stroke="#4B4B4B" stroke-linecap="round" stroke-linejoin="round"/>
<path d="M1 3.24828C1 1.95644 2.15197 0.90918 3.57301 0.90918H10.4344C11.8554 0.90918 13.0074 1.95644 13.0074 3.24828V9.48591C13.0074 10.7777 11.8554 11.825 10.4344 11.825H3.57301C2.15197 11.825 1 10.7777 1 9.48591V3.24828Z" stroke="#4B4B4B" stroke-linecap="round" stroke-linejoin="round"/>
<path d="M7.00361 8.68519C8.41194 8.68519 9.55361 7.64731 9.55361 6.36701C9.55361 5.08671 8.41194 4.04883 7.00361 4.04883C5.59529 4.04883 4.45361 5.08671 4.45361 6.36701C4.45361 7.64731 5.59529 8.68519 7.00361 8.68519Z" stroke="#4B4B4B" stroke-linecap="round" stroke-linejoin="round"/>
</svg>
