<?xml version="1.0" encoding="iso-8859-1"?>
<!-- Uploaded to: SVG Repo, www.svgrepo.com, Generator: SVG Repo Mixer Tools -->
<!DOCTYPE svg PUBLIC "-//W3C//DTD SVG 1.1//EN" "http://www.w3.org/Graphics/SVG/1.1/DTD/svg11.dtd">
<svg fill="#FFFFFF" version="1.1" id="Capa_1" xmlns="http://www.w3.org/2000/svg" xmlns:xlink="http://www.w3.org/1999/xlink" 
	 width="800px" height="800px" viewBox="0 0 122.353 122.354" stroke="#000000" stroke-width="5"
	 xml:space="preserve">
<g>
	<path d="M36.913,86.333c6.3-0.399,11.4-6.8,14.2-16.1c0.6-2-1-3.9-3.1-3.8l-24.7,1.6c-2.1,0.1-3.4,2.3-2.6,4.2
		C24.613,81.133,30.613,86.733,36.913,86.333z"/>
	<path d="M49.513,55.333c3.1-0.2,5.6-2.8,5.6-6c0-4.9,0.5-10.4,1.3-16.4c1.9-13.7-1.5-32-18.6-32.9c-20.9-1.1-24.5,25.3-23.5,40.7
		c0.3,4.2,0.9,8.2,1.8,11.9c0.7,2.8,3.3,4.7,6.2,4.5L49.513,55.333z"/>
	<path d="M99.114,104.033l-24.7-1.6c-2.101-0.101-3.7,1.8-3.101,3.8c2.7,9.3,7.9,15.7,14.2,16.1c6.3,0.4,12.2-5.2,16.2-14.1
		C102.513,106.333,101.213,104.233,99.114,104.033z"/>
	<path d="M84.614,36.033c-17.101,0.9-20.5,19.2-18.601,32.9c0.8,6.1,1.2,11.5,1.3,16.399c0,3.2,2.5,5.8,5.601,6l27.1,1.8
		c2.9,0.2,5.5-1.699,6.2-4.5c0.9-3.699,1.6-7.699,1.8-11.899C109.114,61.333,105.513,34.933,84.614,36.033z"/>
</g>
</svg>